<?xml version="1.0" encoding="UTF-8"?>
<svg id="Capa_1" data-name="Capa 1" xmlns="http://www.w3.org/2000/svg" viewBox="0 0 356.24 145.27">
  <defs>
    <style>
      .cls-1 {
        fill: #7249b2;
      }

      .cls-1, .cls-2 {
        stroke-width: 0px;
      }

      .cls-2 {
        fill: #9f62ec;
      }
    </style>
  </defs>
  <path class="cls-2" d="M73.58,100.15l-.4-.37c-1.8.39-3.66.61-5.57.61-14.34,0-26-11.66-26-26s11.66-26,26-26,26,11.66,26,26c0,1.18-.09,2.33-.24,3.47l.7.65,10.87,10.11,16.93-18.21c-2.05-28.15-25.59-50.44-54.26-50.44S13.19,44.38,13.19,74.39s24.12,54.12,53.88,54.41l17.31-18.62-10.79-10.03Z"/>
  <path class="cls-1" d="M122.96,99.73l-.92-25.34-.13-3.58c0-.14-.02-.27-.03-.41l-16.93,18.21-10.87-10.11-.7-.65c-1.45,10.85-9.63,19.6-20.19,21.92l.4.37,10.79,10.03-17.31,18.62-.06.06s0,0,0,0l29.39-.04,19.81-.02c4.26,0,7.67-3.55,7.52-7.81l-.77-21.27Z"/>
  <g>
    <path class="cls-1" d="M188.8,121.98h0c-.53-3.27-4.37-4.61-6.94-2.52-3.32,2.71-7.28,4.81-11.88,6.3-2.85.92-5.83,1.43-8.82,1.54-10.13.37-17.65-2.17-22.55-7.6-4.59-5.09-6.89-12.43-6.89-22.01v-42.4c0-4.87,3.95-8.82,8.82-8.82h12.7c4.58,0,8.29,3.71,8.29,8.29v39.33c0,3.39.87,6.12,2.62,8.16,1.75,2.05,4.22,3.07,7.41,3.07,3.69,0,6.69-1.2,8.98-3.59,2.3-2.4,3.44-5.34,3.44-8.84v-38.31c0-4.48,3.63-8.11,8.11-8.11h13.09c4.75,0,8.6,3.85,8.6,8.6v66.24c0,2.34-1.89,4.23-4.23,4.23h-16.58c-2.07,0-3.84-1.5-4.18-3.55Z"/>
    <path class="cls-1" d="M244.34,118.01l-23.27-61.45c-1.85-4.88,1.76-10.1,6.97-10.1h14.23c4.16,0,7.82,2.74,9,6.73l12.54,42.54h1.05l12.34-41.84c1.3-4.4,5.34-7.42,9.93-7.42h11.85c4.71,0,7.96,4.72,6.27,9.12l-23.41,61.18c-2.02,5.28-7.09,8.76-12.74,8.76h-13.87c-4.84,0-9.17-2.99-10.89-7.52Z"/>
    <path class="cls-1" d="M311.37,116.75v-61.5c0-4.85,3.93-8.78,8.78-8.78h12.23c4.85,0,8.78,3.93,8.78,8.78v61.5c0,4.85-3.93,8.78-8.78,8.78h-12.23c-4.85,0-8.78-3.93-8.78-8.78ZM311.7,24.21c0-8.05,6.53-14.58,14.58-14.58s14.58,6.53,14.58,14.58-6.53,14.58-14.58,14.58-14.58-6.53-14.58-14.58Z"/>
  </g>
</svg>