<svg width="288" height="113" viewBox="0 0 288 113" fill="none" xmlns="http://www.w3.org/2000/svg">
<g clip-path="url(#clip0_275_19)">
<path d="M125.08 25.0961H147.649L136.484 87.8414H113.562L114.599 82.1904C112.267 84.6009 109.466 86.503 106.372 87.7783C103.277 89.0537 99.9551 89.6749 96.6117 89.6034C88.2557 89.6034 82.0354 86.4756 77.9508 80.2198C73.8661 73.964 72.7741 66.0574 74.6747 56.5C76.263 47.483 80.6125 39.1902 87.1153 32.7802C93.5361 26.5245 100.852 23.3966 109.063 23.3966C116.05 23.3966 121.04 25.8641 124.033 30.7992L125.08 25.0961ZM98.8302 64.8827C100.413 67.1348 102.853 68.2608 106.149 68.2608C109.339 68.2991 112.417 67.0875 114.733 64.8827C117.138 62.6632 118.743 59.7039 119.295 56.4687C119.644 55.0432 119.695 53.5603 119.446 52.1138C119.196 50.6674 118.65 49.2887 117.844 48.0651C116.254 45.8061 113.835 44.6766 110.587 44.6766C107.408 44.6399 104.342 45.8562 102.044 48.0651C99.6297 50.2788 98.0113 53.2334 97.441 56.4687C97.0842 57.8941 97.0272 59.3787 97.2735 60.8276C97.5199 62.2764 98.0642 63.6576 98.8717 64.8827H98.8302Z" fill="#892CFF"/>
<path d="M209.655 87.8414H184.235L173.619 62.7453L169.358 87.8414H146.416L161.863 0H184.287L175.879 49.4414L192.829 25.0961H218.447L194.737 56.4687L209.655 87.8414Z" fill="#892CFF"/>
<path d="M262.372 25.0961H287.99L258.018 87.7163C253.616 96.8427 247.869 103.446 240.778 107.526C233.686 111.606 224.84 113.407 214.238 112.927L217.711 91.0318C221.013 91.1272 224.314 90.812 227.539 90.0934C229.774 89.5176 231.804 88.3218 233.396 86.6423L218.447 25.1273H244.074L249.88 58.6374L262.372 25.0961Z" fill="#892CFF"/>
<path d="M73.0056 8.59124C68.2367 2.87069 61.4531 0.00695085 52.6548 0H18.7127L13.8712 22.7293C18.2358 28.3178 30.1892 25.1795 30.1892 25.1795L27.7736 18.7152L37.892 19.4554L39.2812 22.4999C56.5944 20.7483 61.778 30.7262 61.778 30.7262C61.778 30.7262 52.5615 40.7042 35.86 38.9421L33.2268 42.0283L22.7352 42.7686L27.9188 36.2939C27.9188 36.2939 17.2613 33.166 10.5019 38.7545L0.0414429 87.8726H24.8294L30.0129 63.0269H39.8721C48.6393 63.0527 57.1411 60.0035 63.9136 54.4043C71.0366 48.6667 75.8295 40.5093 77.3909 31.4665C79.2501 21.9508 77.7883 14.3257 73.0056 8.59124Z" fill="#892CFF"/>
</g>
<defs>
<clipPath id="clip0_275_19">
<rect width="288" height="113" fill="white"/>
</clipPath>
</defs>
</svg>
